<svg width="18" height="16" viewBox="0 0 18 16" fill="none" xmlns="http://www.w3.org/2000/svg">
<path d="M10.3856 14.9295L9.53347 15.7429C9.17267 16.0873 8.58924 16.0873 8.23228 15.7429L0.770601 8.62407C0.4098 8.27967 0.4098 7.72277 0.770601 7.38203L8.23228 0.259522C8.59308 -0.0848796 9.1765 -0.0848796 9.53347 0.259522L10.3856 1.07289C10.7502 1.42096 10.7425 1.98886 10.3702 2.32959L5.74505 6.53568H16.7764C17.2869 6.53568 17.6976 6.92772 17.6976 7.41501V8.58744C17.6976 9.07473 17.2869 9.46676 16.7764 9.46676H5.74505L10.3702 13.6728C10.7464 14.0136 10.754 14.5815 10.3856 14.9295Z" fill="#353535"/>
</svg>
